#N canvas 107 27 1250 750 10;
#X obj 680 772 bng 15 250 50 0 empty empty empty 17 7 0 10 #fcfcfc #000000 #000000;
#X text 701 770 glitch the tables;
#X msg 170 584 stop;
#X msg 222 659 start;
#X obj 182 556 sel 0 1;
#X obj 226 616 delay;
#X obj 255 558 bng 15 250 50 0 empty empty empty 17 7 0 10 #fcfcfc #000000 #000000;
#X obj 257 350 bng 15 250 50 0 reset_all reset_table_rcv reset\ wavetable 17 7 0 10 #fcfcfc #000000 #000000;
#X obj 24 132 bng 25 250 50 0 glitchbang glitchbang_rcv glitchbang 28 12 0 10 #fcfcfc #000000 #000000;
#X obj 686 664 metro 3000;
#X obj 676 617 loadbang;
#X obj 676 737 spigot;
#X obj 745 496 /;
#X obj 793 461 t b f;
#X floatatom 745 517 15 0 0 0 - - - 0;
#X obj 286 17 tgl 50 0 \$1-playdestroy \$1-playdestroy_rcv play/destroy 17 7 0 10 #c6feff #000000 #000000 0 1;
#X obj 477 146 tgl 50 0 \$1-record_sound \$1-record_sound_rcv record\ sound 17 7 0 10 #ffc7c6 #000000 #000000 0 1;
#X obj 681 799 spigot;
#X obj 172 21 tgl 15 1 \$1-glitch_on \$1-glitch_on_rcv auto\ glitch\ on 17 7 0 10 #fcfcfc #000000 #000000 0 1;
#X obj 257 195 tgl 15 1 \$1-overwrite_on \$1-overwrite_on_rcv overwrite\ on 17 7 0 10 #ffffff #000000 #000000 0 1;
#X obj 275 657 spigot;
#X obj 256 531 spigot;
#X msg 227 586 200;
#X text 263 586 should this be adjusted or variable?;
#X obj 25 633 samplerate~;
#X obj 26 608 bng 15 250 50 0 empty empty empty 17 7 0 10 #fcfcfc #000000 #000000;
#X floatatom 25 655 5 0 0 0 - - - 0;
#X obj 25 579 loadbang;
#X text 334 654 overwriting the sample array;
#N canvas 502 47 902 541 sampler 0;
#X obj 248 160 timer;
#X obj 243 105 sel 1 0;
#X floatatom 248 181 7 0 0 0 - - - 0;
#X obj 201 257 adc~;
#X msg 245 241 \$1 5;
#X obj 245 262 line~;
#X obj 218 311 *~;
#X msg 315 170 441000;
#X msg 303 126 tempo 1 samp;
#X obj 303 100 loadbang;
#X obj 231 184 bng 15 250 50 0 empty empty empty 17 7 0 10 #fcfcfc #000000 #000000;
#X msg 130 261 stop, f 8;
#X obj 171 228 bng 15 250 50 0 empty empty empty 17 7 0 10 #fcfcfc #000000 #000000;
#X text 365 169 max sample length - hard coded to 10s at 44.1khz;
#X text 551 192 (this is arbitrary);
#X obj 143 192 t b b;
#X obj 100 358 i \$0;
#X obj 422 318 samplerate~;
#X obj 423 293 bng 15 250 50 0 empty empty empty 17 7 0 10 #fcfcfc #000000 #000000;
#X floatatom 422 340 5 0 0 0 - - - 0;
#X obj 276 342 *~;
#X obj 327 334 *~;
#X obj 339 311 tgl 16 0 empty empty empty 0 -8 0 10 #fcfcfc #000000 #000000 0 1;
#X obj 123 385 tabwrite~ sound-L;
#X obj 265 389 tabwrite~ sound-R;
#X msg 508 255 \; sound-L resize \$1;
#X msg 87 416 \; sound-L normalize 0.7;
#X msg 96 449 \; sound-R normalize 0.7;
#X obj 184 27 inlet;
#X floatatom 651 224 5 0 0 0 - - - 0;
#X obj 329 283 r monostereo;
#X msg 641 254 \; sound-R resize \$1;
#X obj 413 375 s samplerate;
#X obj 252 212 t b f;
#X obj 380 248 s samplesize_samples;
#X connect 0 0 2 0;
#X connect 1 0 0 0;
#X connect 1 0 7 0;
#X connect 1 0 12 0;
#X connect 1 1 0 1;
#X connect 1 1 15 0;
#X connect 2 0 25 0;
#X connect 2 0 31 0;
#X connect 2 0 33 0;
#X connect 3 0 6 0;
#X connect 3 1 20 0;
#X connect 4 0 5 0;
#X connect 5 0 6 1;
#X connect 5 0 20 1;
#X connect 6 0 21 0;
#X connect 6 0 23 0;
#X connect 7 0 25 0;
#X connect 7 0 31 0;
#X connect 8 0 0 0;
#X connect 9 0 8 0;
#X connect 10 0 2 0;
#X connect 11 0 23 0;
#X connect 11 0 24 0;
#X connect 12 0 23 0;
#X connect 12 0 24 0;
#X connect 15 0 16 0;
#X connect 15 1 11 0;
#X connect 16 0 26 0;
#X connect 16 0 27 0;
#X connect 17 0 19 0;
#X connect 18 0 17 0;
#X connect 19 0 32 0;
#X connect 20 0 24 0;
#X connect 21 0 24 0;
#X connect 22 0 21 1;
#X connect 28 0 1 0;
#X connect 28 0 4 0;
#X connect 29 0 25 0;
#X connect 30 0 22 0;
#X connect 33 0 18 0;
#X connect 33 1 34 0;
#X restore 477 207 pd sampler;
#X obj 31 21 hsl 136 16 0.01 1 0 1 empty glitch-rate_rcv auto\ glitch\ rate -2 -8 0 10 #fcfcfc #000000 #000000 9500 1;
#X obj 41 288 hsl 136 16 0 1 0 1 glitch-length-range glitch_length_range_rcv glitch\ length\ range -2 -8 0 10 #fcfcfc #000000 #000000 5200 1;
#X obj 28 209 hsl 136 16 0 1 0 1 glitch-height-range glitch_height_range_rcv glitch\ slope\ range -2 -8 0 10 #fcfcfc #000000 #000000 6600 1;
#X msg 23 537 \; pd dsp 1;
#X obj 23 512 loadbang;
#X msg 813 63 1;
#X obj 642 273 bng 16 250 50 0 empty glitchbang empty 0 -8 0 10 #fcfcfc #000000 #000000;
#X text 659 297 wavetable glitching system v2;
#X obj 800 436 + 1;
#X obj 801 393 * 10;
#X text 836 418 autoglitch from 1-10x per loop;
#X obj 1095 587 bng 50 250 50 0 \$1-playdestroy_once \$1-playdestroy_once_rcv play/destroy\ once 17 7 0 10 #00faff #ffc7c6 #000000;
#N canvas 0 46 874 725 playdestroy_once 0;
#X obj 58 68 r \$1-playdestroy_once;
#X obj 58 89 bng 16 250 50 0 empty empty empty 0 -8 0 10 #fcfcfc #000000 #000000;
#X obj 228 221 samplerate~;
#X floatatom 228 242 5 0 0 0 - - - 0;
#X obj 228 170 loadbang;
#X obj 228 191 bng 16 250 50 0 empty empty empty 0 -8 0 10 #fcfcfc #000000 #000000;
#X floatatom 105 158 5 0 0 0 - - - 0;
#X obj 172 298 /;
#X obj 228 262 t b f;
#X obj 172 319 * 1000;
#X floatatom 172 340 5 0 0 0 - - - 0;
#X obj 116 379 pack 0 0;
#X obj 54 268 t b b b;
#X msg 86 340 1;
#X msg 116 338 0;
#X obj 106 409 line~;
#X obj 115 442 *~;
#X obj 105 138 r \$0-sample_samples;
#X obj 354 378 r \$0-wavetable_samples;
#X obj 173 508 *~;
#X obj 175 563 dac~;
#X msg 348 293 0;
#X obj 349 142 r \$1-stop_once;
#X obj 29 522 s \$1-glitchbang_rcv;
#X text 428 479 need to update this for stereo \, i guess?!;
#X obj 115 462 tabread4~ wavetable-full;
#X obj 175 542 tabread4~ sound-L;
#X connect 0 0 1 0;
#X connect 1 0 12 0;
#X connect 2 0 3 0;
#X connect 3 0 8 0;
#X connect 4 0 5 0;
#X connect 5 0 2 0;
#X connect 6 0 7 0;
#X connect 6 0 19 1;
#X connect 7 0 9 0;
#X connect 8 0 7 0;
#X connect 8 1 7 1;
#X connect 9 0 10 0;
#X connect 10 0 11 1;
#X connect 11 0 15 0;
#X connect 12 0 23 0;
#X connect 12 1 13 0;
#X connect 12 2 14 0;
#X connect 13 0 11 0;
#X connect 14 0 15 0;
#X connect 15 0 16 0;
#X connect 16 0 25 0;
#X connect 17 0 6 0;
#X connect 18 0 16 1;
#X connect 19 0 26 0;
#X connect 21 0 15 0;
#X connect 22 0 21 0;
#X connect 25 0 19 0;
#X connect 26 0 20 0;
#X connect 26 0 20 1;
#X restore 1095 646 pd playdestroy_once;
#X obj 796 28 loadbang;
#X obj 1162 611 bng 16 250 50 0 \$1-stop_once \$1-stop_once_rcv stop\ once 0 -8 0 10 #fcfcfc #000000 #000000;
#X obj 787 546 pipe 100;
#X obj 776 573 ==;
#X obj 776 594 tgl 16 0 empty empty empty 0 -8 0 10 #fcfcfc #000000 #000000 0 1;
#X obj 774 619 change;
#X obj 774 640 sel 1;
#X obj 852 240 *;
#X obj 881 210 t b f;
#X msg 883 187 1;
#X msg 912 183 -1;
#X obj 184 88 vsl 15 90 0.1 2 0 1 \$1-rate \$1-rate_rcv playback\ speed 0 -9 0 10 #fcfcfc #000000 #000000 4216 1;
#X obj 891 160 sel 0 1;
#X obj 194 254 tgl 16 1 \$1-rev \$1-rev_rcv reverse 0 -8 0 10 #fcfcfc #000000 #000000 0 1;
#X obj 208 102 bng 16 250 50 0 \$1-pitch_reset \$1-pitch_reset_rcv pitch\ reset 0 -8 0 10 #fcfcfc #000000 #000000;
#X obj 254 256 vradio 15 1 1 2 monostereo monostereo_rcv input 0 -8 0 10 #fcfcfc #000000 #000000 1;
#X text 271 272 mono;
#X text 273 257 stereo;
#X obj 27 417 table sound-L;
#X obj 31 439 table sound-R;
#X obj 624 344 tabwrite~ wavetable-full;
#X obj 25 459 table wavetable-full;
#X obj 24 480 table wavetable-full_r;
#X obj 777 343 tabwrite~ wavetable-full_r;
#X obj 392 693 delread~ memory-R 200;
#X obj 402 720 tabwrite~ sound-R;
#X obj 256 716 delread~ memory-L 200;
#X obj 238 740 tabwrite~ sound-L;
#X obj 26 676 s samplerate;
#X msg 487 44 \; wavetable-full resize 44100;
#X msg 442 78 \; wavetable-full_r resize 44100;
#X obj 457 21 loadbang;
#X obj 398 496 dac~;
#X obj 255 372 s reset_all;
#X obj 632 317 y_tablerandom_v2;
#X obj 776 318 y_tablerandom_v2;
#X obj 1024 140 bng 16 250 50 0 empty empty empty 0 -8 0 10 #fcfcfc #000000 #000000;
#X obj 1024 161 t b b b b;
#X msg 1069 194 0;
#X obj 1060 231 line~;
#X msg 1012 196 1 1000;
#X obj 973 278 tabwrite~ wavetable-full;
#X obj 991 309 tabwrite~ wavetable-full_r;
#X obj 1024 119 r reset_all;
#X obj 836 174 r rate;
#X obj 893 135 r rev;
#X obj 254 296 s monostereo;
#X obj 38 309 s glitch-length-range;
#X obj 25 230 s glitch-height-range;
#X msg 444 281 44100;
#X obj 439 257 loadbang;
#X obj 452 303 s wavetable_samples;
#X obj 286 72 s playdestroy;
#X obj 184 186 s rate;
#X obj 208 123 s pitch_reset;
#X obj 194 275 s rev;
#X obj 257 215 s overwrite_on;
#X obj 28 42 s glitch-rate;
#X obj 170 42 s glitch_on;
#X obj 24 162 s glitchbang;
#X obj 644 243 r glitchbang;
#X obj 369 459 y_waveclock_stereo_lite \$0;
#X obj 714 704 r playdestroy;
#X obj 725 798 r glitch_on;
#X obj 683 827 s glitchbang_rcv;
#X obj 31 102 r glitchbang_rcv;
#X obj 660 407 r samplesize_samples;
#X obj 660 428 / 44.1;
#X floatatom 660 449 5 0 0 0 - - - 0;
#X obj 795 372 r glitch-rate;
#X obj 850 262 s pitch;
#X obj 295 620 r overwrite_on;
#X obj 285 481 r loopbang;
#X obj 175 477 r playdestroy;
#X text 1104 553 maybe won't use these;
#X obj 849 31 r pitch_reset;
#X obj 784 90 s rate_rcv;
#X obj 145 62 r rate_rcv;
#X obj 634 117 r sw1 @hv_param;
#X msg 384 47 1;
#X obj 378 341 loadbang;
#X obj 365 523 delwrite~ memory-L 300;
#X obj 375 544 delwrite~ memory-R 300;
#X connect 0 0 17 0;
#X connect 2 0 5 0;
#X connect 2 0 20 0;
#X connect 3 0 20 0;
#X connect 4 0 2 0;
#X connect 4 1 22 0;
#X connect 5 0 3 0;
#X connect 6 0 22 0;
#X connect 7 0 76 0;
#X connect 8 0 102 0;
#X connect 9 0 11 0;
#X connect 10 0 9 0;
#X connect 11 0 0 0;
#X connect 12 0 14 0;
#X connect 13 0 12 0;
#X connect 13 1 12 1;
#X connect 14 0 9 1;
#X connect 14 0 45 0;
#X connect 14 0 46 1;
#X connect 15 0 95 0;
#X connect 16 0 29 0;
#X connect 17 0 107 0;
#X connect 18 0 101 0;
#X connect 19 0 99 0;
#X connect 20 0 68 0;
#X connect 20 0 70 0;
#X connect 21 0 6 0;
#X connect 22 0 5 0;
#X connect 24 0 26 0;
#X connect 25 0 24 0;
#X connect 26 0 71 0;
#X connect 27 0 25 0;
#X connect 30 0 100 0;
#X connect 31 0 90 0;
#X connect 32 0 91 0;
#X connect 34 0 33 0;
#X connect 35 0 119 0;
#X connect 36 0 77 0;
#X connect 36 0 78 0;
#X connect 38 0 13 0;
#X connect 39 0 38 0;
#X connect 43 0 35 0;
#X connect 45 0 46 0;
#X connect 46 0 47 0;
#X connect 47 0 48 0;
#X connect 48 0 49 0;
#X connect 49 0 9 0;
#X connect 50 0 113 0;
#X connect 51 0 50 0;
#X connect 51 1 50 1;
#X connect 52 0 51 0;
#X connect 53 0 51 0;
#X connect 54 0 96 0;
#X connect 55 0 52 0;
#X connect 55 1 53 0;
#X connect 56 0 98 0;
#X connect 57 0 97 0;
#X connect 58 0 89 0;
#X connect 67 0 68 0;
#X connect 69 0 70 0;
#X connect 74 0 73 0;
#X connect 74 0 72 0;
#X connect 74 0 122 0;
#X connect 77 0 63 0;
#X connect 77 1 63 0;
#X connect 78 0 66 0;
#X connect 78 1 66 0;
#X connect 79 0 80 0;
#X connect 80 1 83 0;
#X connect 80 2 84 0;
#X connect 80 2 85 0;
#X connect 80 3 81 0;
#X connect 81 0 82 0;
#X connect 82 0 84 0;
#X connect 82 0 85 0;
#X connect 83 0 82 0;
#X connect 86 0 79 0;
#X connect 87 0 50 0;
#X connect 88 0 55 0;
#X connect 92 0 94 0;
#X connect 93 0 92 0;
#X connect 103 0 36 0;
#X connect 104 0 75 0;
#X connect 104 0 124 0;
#X connect 104 1 75 1;
#X connect 104 1 125 0;
#X connect 105 0 11 1;
#X connect 106 0 17 1;
#X connect 108 0 8 0;
#X connect 109 0 110 0;
#X connect 110 0 111 0;
#X connect 111 0 12 0;
#X connect 112 0 39 0;
#X connect 114 0 20 1;
#X connect 115 0 21 0;
#X connect 116 0 4 0;
#X connect 116 0 21 1;
#X connect 118 0 35 0;
#X connect 120 0 54 0;
#X connect 121 0 16 0;
#X connect 122 0 15 0;
#X connect 123 0 7 0;
#X coords 0 750 1 749 400 400 0;
