#N canvas 827 239 527 327 12;
#X obj 396 165 r sw1_press @hv_param;
#X obj 397 204 change;
#X obj 413 298 *~;
#X obj 338 262 osc~ 300;
#X obj 429 333 *~ 0.3;
#X obj 429 359 dac~;
#X obj 535 232 dac~;
#X obj 534 207 adc~;
#X obj 535 374 s led @hv_param;
#X obj 529 274 loadbang;
#X obj 535 333 metro 200;
#X obj 539 303 tgl 25 0 empty empty empty 17 7 0 10 #e4e4e4 #4d4d4d #373737 0 1;
#X connect 0 0 1 0;
#X connect 1 0 2 1;
#X connect 2 0 4 0;
#X connect 3 0 2 0;
#X connect 4 0 5 0;
#X connect 4 0 5 1;
#X connect 7 0 6 0;
#X connect 7 0 6 1;
#X connect 9 0 11 0;
#X connect 10 0 8 0;
#X connect 11 0 10 0;
