#N canvas 535 25 988 697 10;
#X obj 90 832 outlet~;
#X obj 202 467 phasor~;
#X floatatom 226 314 5 0 0 0 - - - 0;
#X obj 85 786 *~;
#X obj 101 685 line~;
#X obj 104 396 t f b;
#X msg 135 427 0;
#X floatatom 313 286 5 0 0 0 - - - 0;
#X obj 259 360 sig~;
#X msg 311 323 \$1 20;
#X obj 318 360 line~;
#X obj 279 404 *~;
#X obj 101 663 pack 0 20;
#X obj 442 642 samphold~;
#X obj 442 667 ys.snapshot 10;
#X floatatom 442 689 5 0 0 0 - - - 0;
#X obj 440 750 change;
#X floatatom 440 772 5 0 0 0 - - - 0;
#X obj 440 791 t b;
#X obj 494 829 spigot;
#X obj 518 616 *~;
#X obj 611 848 sel 0;
#X obj 441 613 osc~ 10;
#X obj 144 495 *~;
#X floatatom 240 90 6 0 0 0 - - - 8;
#X obj 206 130 f;
#X obj 181 782 *~;
#X obj 189 839 outlet~;
#X obj 119 544 tabread4~ wavetable-full;
#X obj 292 543 tabread4~ wavetable-full_r;
#X obj 242 741 tabread4~ sound-R;
#X obj 88 740 tabread4~ sound-L;
#X msg 135 249 1, f 8;
#X obj 218 256 /;
#X obj 177 218 t b f;
#X obj 99 367 r playdestroy;
#X obj 534 807 r playdestroy;
#X obj 584 883 s loopbang;
#X obj 223 9 r samplesize_samples;
#X obj 247 633 r samplesize_samples;
#X obj 536 553 r playdestroy;
#X obj 387 196 r pitch;
#X obj 203 697 *~ 48000;
#X obj 280 697 *~ 48000;
#X obj 109 9 loadbang;
#X msg 135 57 48000;
#X obj 209 168 / 48000;
#X connect 1 0 23 0;
#X connect 1 0 20 0;
#X connect 2 0 8 0;
#X connect 3 0 0 0;
#X connect 4 0 3 1;
#X connect 4 0 26 1;
#X connect 5 0 12 0;
#X connect 5 1 6 0;
#X connect 6 0 1 1;
#X connect 7 0 9 0;
#X connect 8 0 11 0;
#X connect 9 0 10 0;
#X connect 10 0 11 1;
#X connect 11 0 1 0;
#X connect 12 0 4 0;
#X connect 13 0 14 0;
#X connect 14 0 15 0;
#X connect 15 0 16 0;
#X connect 16 0 17 0;
#X connect 17 0 18 0;
#X connect 18 0 19 0;
#X connect 19 0 37 0;
#X connect 20 0 13 1;
#X connect 21 0 37 0;
#X connect 22 0 13 0;
#X connect 23 0 28 0;
#X connect 23 0 29 0;
#X connect 24 0 25 0;
#X connect 25 0 46 0;
#X connect 26 0 27 0;
#X connect 28 0 42 0;
#X connect 29 0 43 0;
#X connect 30 0 26 0;
#X connect 31 0 3 0;
#X connect 32 0 33 0;
#X connect 33 0 2 0;
#X connect 34 0 32 0;
#X connect 34 1 33 1;
#X connect 35 0 5 0;
#X connect 36 0 19 1;
#X connect 36 0 21 0;
#X connect 38 0 24 0;
#X connect 39 0 42 1;
#X connect 39 0 43 1;
#X connect 40 0 20 1;
#X connect 41 0 7 0;
#X connect 42 0 31 0;
#X connect 43 0 30 0;
#X connect 44 0 45 0;
#X connect 45 0 23 1;
#X connect 46 0 34 0;
